<?xml version="1.0" encoding="UTF-8"?>
<!DOCTYPE svg PUBLIC "-//W3C//DTD SVG 1.1//EN" "http://www.w3.org/Graphics/SVG/1.1/DTD/svg11.dtd">
<svg xmlns="http://www.w3.org/2000/svg" version="1.1" width="630px" height="137px" style="shape-rendering:geometricPrecision; text-rendering:geometricPrecision; image-rendering:optimizeQuality; fill-rule:evenodd; clip-rule:evenodd" xmlns:xlink="http://www.w3.org/1999/xlink">
<g><path style="opacity:1" fill="#fefefe" d="M -0.5,-0.5 C 209.5,-0.5 419.5,-0.5 629.5,-0.5C 629.5,45.1667 629.5,90.8333 629.5,136.5C 419.5,136.5 209.5,136.5 -0.5,136.5C -0.5,90.8333 -0.5,45.1667 -0.5,-0.5 Z"/></g>
<g><path style="opacity:1" fill="#3473ba" d="M 45.5,27.5 C 49.4367,27.2065 53.27,27.5399 57,28.5C 66.6062,48.0455 75.9396,67.7121 85,87.5C 85.1998,93.0831 84.0331,98.4164 81.5,103.5C 68.9588,78.4179 56.9588,53.0845 45.5,27.5 Z"/></g>
<g><path style="opacity:1" fill="#ed6e05" d="M 102.5,61.5 C 98.351,62.0803 94.6843,61.4136 91.5,59.5C 96.7587,49.3152 101.759,38.9819 106.5,28.5C 110.795,27.3391 115.129,27.1725 119.5,28C 113.66,39.1809 107.993,50.3476 102.5,61.5 Z"/></g>
<g><path style="opacity:1" fill="#171717" d="M 294.5,30.5 C 297.777,30.2161 300.943,30.5495 304,31.5C 304.667,55.1667 304.667,78.8333 304,102.5C 300.667,103.833 297.333,103.833 294,102.5C 293.178,78.4275 293.344,54.4275 294.5,30.5 Z"/></g>
<g><path style="opacity:1" fill="#151515" d="M 133.5,31.5 C 141.045,31.8625 143.545,35.5292 141,42.5C 135.023,47.102 130.856,45.7686 128.5,38.5C 129.06,35.288 130.727,32.9547 133.5,31.5 Z"/></g>
<g><path style="opacity:1" fill="#101010" d="M 314.5,32.5 C 317.518,32.3354 320.518,32.502 323.5,33C 324,33.5 324.5,34 325,34.5C 332.072,51.8834 339.238,69.2168 346.5,86.5C 353.429,69.5496 360.262,52.5496 367,35.5C 370.517,32.3651 374.517,31.6984 379,33.5C 370.365,56.6538 360.865,79.8204 350.5,103C 347.007,104.004 343.841,103.504 341,101.5C 331.961,78.882 322.794,56.5487 313.5,34.5C 313.863,33.8165 314.196,33.1499 314.5,32.5 Z"/></g>
<g><path style="opacity:1" fill="#121212" d="M 167.5,51.5 C 174.218,51.1366 180.051,53.1366 185,57.5C 185.536,59.5672 185.036,61.4006 183.5,63C 178.327,61.5096 172.994,60.8429 167.5,61C 161.915,63.3416 161.248,66.6749 165.5,71C 173.352,72.5053 180.185,76.0053 186,81.5C 189.277,91.9088 185.777,99.0755 175.5,103C 169.487,104.482 163.487,104.148 157.5,102C 150.107,98.8142 149.774,95.3142 156.5,91.5C 162.669,95.8711 169.169,96.5377 176,93.5C 178.004,90.4264 177.837,87.5931 175.5,85C 169.672,83.0574 164.005,80.724 158.5,78C 150.061,69.2824 150.727,61.2824 160.5,54C 163.004,53.3024 165.337,52.4691 167.5,51.5 Z"/></g>
<g><path style="opacity:1" fill="#121112" d="M 274.5,74.5 C 275.748,73.6661 276.415,72.3328 276.5,70.5C 276.489,68.9549 276.156,67.6216 275.5,66.5C 274.076,62.3597 271.076,60.3597 266.5,60.5C 264.181,61.0639 261.847,61.5639 259.5,62C 257.195,65.0319 254.362,65.8652 251,64.5C 250.362,63.3914 249.862,62.2247 249.5,61C 254.128,54.7175 260.461,51.5508 268.5,51.5C 277.557,52.7225 283.39,57.7225 286,66.5C 286.667,78.5 286.667,90.5 286,102.5C 280.708,104.834 277.375,103.167 276,97.5C 268.958,103.921 261.125,105.421 252.5,102C 245.531,95.9442 244.697,89.1109 250,81.5C 257.272,76.2086 265.439,73.8752 274.5,74.5 Z"/></g>
<g><path style="opacity:1" fill="#0e0d0e" d="M 432.5,68.5 C 432.747,71.9387 432.414,75.272 431.5,78.5C 431.167,78.5 430.833,78.5 430.5,78.5C 419.833,78.5 409.167,78.5 398.5,78.5C 398.232,80.099 398.566,81.4324 399.5,82.5C 400.669,90.8323 405.502,95.1656 414,95.5C 418.858,94.8222 423.358,93.1555 427.5,90.5C 430.738,91.3422 432.238,93.3422 432,96.5C 424.342,103.091 415.509,105.257 405.5,103C 391.091,95.8087 385.925,84.3087 390,68.5C 395.448,55.0258 405.281,49.8592 419.5,53C 426.775,55.7257 431.108,60.8924 432.5,68.5 Z"/></g>
<g><path style="opacity:1" fill="#151515" d="M 463.5,51.5 C 474.154,51.5348 476.154,55.5348 469.5,63.5C 461.803,60.8934 456.303,63.2267 453,70.5C 452.667,81.1667 452.333,91.8333 452,102.5C 448.435,104.053 445.101,103.72 442,101.5C 441.333,85.8333 441.333,70.1667 442,54.5C 448.125,51.2391 451.458,53.2391 452,60.5C 454.683,55.922 458.517,52.922 463.5,51.5 Z"/></g>
<g><path style="opacity:1" fill="#121212" d="M 498.5,51.5 C 505.794,50.9862 511.794,53.4862 516.5,59C 515.353,61.1778 513.687,62.6778 511.5,63.5C 506.031,60.4076 500.364,59.9076 494.5,62C 491.566,65.4201 491.9,68.4201 495.5,71C 503.528,72.2635 510.361,75.7635 516,81.5C 518.972,88.7583 517.472,94.925 511.5,100C 502.658,105.287 493.658,105.287 484.5,100C 480.677,96.5181 481.343,93.6848 486.5,91.5C 491.648,95.1488 497.315,96.3155 503.5,95C 507.763,92.3526 508.43,89.0193 505.5,85C 499.833,82.6667 494.167,80.3333 488.5,78C 480.355,70.1022 480.688,62.4356 489.5,55C 492.459,53.3957 495.459,52.2291 498.5,51.5 Z"/></g>
<g><path style="opacity:1" fill="#100f10" d="M 568.5,78.5 C 557.5,78.5 546.5,78.5 535.5,78.5C 535.263,79.791 535.596,80.791 536.5,81.5C 538.749,93.3008 545.749,97.4675 557.5,94C 559.94,92.6966 562.44,91.53 565,90.5C 568.031,91.5065 569.365,93.5065 569,96.5C 563.749,101.572 557.416,104.239 550,104.5C 534.457,101.955 526.29,92.7879 525.5,77C 528.986,55.489 540.986,48.1556 561.5,55C 569.704,61.4142 572.037,69.2475 568.5,78.5 Z"/></g>
<g><path style="opacity:1" fill="#131113" d="M 131.5,52.5 C 134.448,52.2229 137.281,52.5562 140,53.5C 140.667,69.8333 140.667,86.1667 140,102.5C 137,103.833 134,103.833 131,102.5C 130.182,85.7594 130.349,69.0927 131.5,52.5 Z"/></g>
<g><path style="opacity:1" fill="#151515" d="M 196.5,52.5 C 199.777,52.2161 202.943,52.5495 206,53.5C 206.333,65.5 206.667,77.5 207,89.5C 208.221,93.666 211.054,95.666 215.5,95.5C 219.646,94.7891 223.312,93.1225 226.5,90.5C 227.333,78.1801 227.833,65.8468 228,53.5C 231.333,52.1667 234.667,52.1667 238,53.5C 238.667,69.5 238.667,85.5 238,101.5C 232.94,104.875 229.606,103.542 228,97.5C 221.861,103.064 214.694,104.897 206.5,103C 201.085,99.9261 197.585,95.4261 196,89.5C 195.188,77.0911 195.355,64.7577 196.5,52.5 Z"/></g>
<g><path style="opacity:1" fill="#f8f8f8" d="M 423.5,68.5 C 423.5,69.5 423.5,70.5 423.5,71.5C 415.833,71.5 408.167,71.5 400.5,71.5C 400.5,70.5 400.5,69.5 400.5,68.5C 401.895,62.7786 405.561,60.1119 411.5,60.5C 417.916,59.7288 421.916,62.3955 423.5,68.5 Z"/></g>
<g><path style="opacity:1" fill="#fcfcfc" d="M 560.5,68.5 C 560.5,69.5 560.5,70.5 560.5,71.5C 552.427,72.1318 544.76,71.4651 537.5,69.5C 541.177,60.8759 547.511,58.3759 556.5,62C 558.666,63.678 559.999,65.8447 560.5,68.5 Z"/></g>
<g><path style="opacity:1" fill="#f1cdae" d="M 91.5,59.5 C 94.6843,61.4136 98.351,62.0803 102.5,61.5C 98.7016,62.4834 94.7016,62.8168 90.5,62.5C 90.2627,61.209 90.596,60.209 91.5,59.5 Z"/></g>
<g><path style="opacity:1" fill="#5c5c5c" d="M 275.5,66.5 C 276.156,67.6216 276.489,68.9549 276.5,70.5C 276.415,72.3328 275.748,73.6661 274.5,74.5C 275.388,71.9455 275.721,69.2788 275.5,66.5 Z"/></g>
<g><path style="opacity:1" fill="#6d6d6d" d="M 432.5,68.5 C 433.16,69.964 433.493,71.6307 433.5,73.5C 433.444,75.6397 432.777,77.3064 431.5,78.5C 432.414,75.272 432.747,71.9387 432.5,68.5 Z"/></g>
<g><path style="opacity:1" fill="#616161" d="M 400.5,68.5 C 400.5,69.5 400.5,70.5 400.5,71.5C 408.167,71.5 415.833,71.5 423.5,71.5C 423.5,70.5 423.5,69.5 423.5,68.5C 424.434,69.5676 424.768,70.901 424.5,72.5C 416.167,72.5 407.833,72.5 399.5,72.5C 399.232,70.901 399.566,69.5676 400.5,68.5 Z"/></g>
<g><path style="opacity:1" fill="#5c5c5c" d="M 560.5,68.5 C 561.434,69.5676 561.768,70.901 561.5,72.5C 553.167,72.5 544.833,72.5 536.5,72.5C 536.263,71.209 536.596,70.209 537.5,69.5C 544.76,71.4651 552.427,72.1318 560.5,71.5C 560.5,70.5 560.5,69.5 560.5,68.5 Z"/></g>
<g><path style="opacity:1" fill="#616161" d="M 430.5,78.5 C 420.347,79.4942 410.014,79.8276 399.5,79.5C 399.5,80.5 399.5,81.5 399.5,82.5C 398.566,81.4324 398.232,80.099 398.5,78.5C 409.167,78.5 419.833,78.5 430.5,78.5 Z"/></g>
<g><path style="opacity:1" fill="#5c5c5c" d="M 568.5,78.5 C 557.628,78.8417 546.961,79.8417 536.5,81.5C 535.596,80.791 535.263,79.791 535.5,78.5C 546.5,78.5 557.5,78.5 568.5,78.5 Z"/></g>
<g><path style="opacity:1" fill="#fbfbfb" d="M 271.5,81.5 C 272.833,81.5 274.167,81.5 275.5,81.5C 275.5,84.5 275.5,87.5 275.5,90.5C 270.824,95.1232 265.157,96.6232 258.5,95C 255.561,90.982 255.895,87.3153 259.5,84C 263.565,83.2687 267.565,82.4353 271.5,81.5 Z"/></g>
<g><path style="opacity:1" fill="#5e5e5e" d="M 271.5,81.5 C 272.919,80.5489 274.585,80.2155 276.5,80.5C 276.813,84.0419 276.479,87.3752 275.5,90.5C 275.5,87.5 275.5,84.5 275.5,81.5C 274.167,81.5 272.833,81.5 271.5,81.5 Z"/></g>
</svg>
