<?xml version="1.0" standalone="no"?>
<!DOCTYPE svg PUBLIC "-//W3C//DTD SVG 20010904//EN"
 "http://www.w3.org/TR/2001/REC-SVG-20010904/DTD/svg10.dtd">
<svg version="1.0" xmlns="http://www.w3.org/2000/svg"
 width="724.000000pt" height="130.000000pt" viewBox="0 0 724.000000 130.000000"
 preserveAspectRatio="xMidYMid meet">

<g transform="translate(0.000000,130.000000) scale(0.100000,-0.100000)"
fill="#000000" stroke="none">
<path d="M0 650 l0 -650 3620 0 3620 0 0 650 0 650 -3620 0 -3620 0 0 -650z
m1214 486 c44 -18 66 -52 66 -99 0 -85 -107 -139 -173 -87 -30 24 -51 80 -42
112 13 43 64 85 103 87 7 1 28 -5 46 -13z m2384 -463 l2 -443 -85 0 -85 0 0
445 0 446 83 -3 82 -3 3 -442z m-3027 147 c43 -140 80 -264 84 -275 4 -13 34
73 89 255 l83 275 102 3 c57 1 101 -1 98 -5 -2 -4 -66 -196 -141 -425 l-137
-418 -87 0 -87 0 -134 413 c-74 226 -136 418 -139 425 -3 10 17 12 94 10 l99
-3 76 -255z m3303 178 c14 -45 51 -169 83 -275 31 -106 60 -189 64 -185 3 4
41 127 85 274 l79 268 98 0 c53 0 97 -3 97 -7 0 -3 -62 -195 -137 -425 l-137
-418 -88 0 c-48 0 -88 2 -88 4 0 2 -61 190 -135 417 -74 227 -135 417 -135
421 0 4 43 8 95 8 l94 0 25 -82z m-792 -128 c28 -11 68 -33 89 -50 l38 -30 31
40 c17 22 40 40 51 40 18 0 19 -11 19 -320 l0 -320 -25 0 c-14 0 -25 3 -25 8
0 4 -13 22 -28 40 l-28 34 -52 -35 c-72 -49 -112 -60 -197 -55 -170 11 -283
130 -293 309 -7 129 44 238 141 302 92 60 186 73 279 37z m1715 -2 c36 -13 76
-39 107 -68 l49 -46 -152 -182 c-106 -128 -147 -184 -137 -188 27 -10 100 18
135 53 l34 34 59 -59 59 -58 -41 -42 c-60 -60 -120 -86 -210 -90 -197 -9 -340
131 -340 334 0 237 219 394 437 312z m1768 1 c32 -12 76 -40 106 -67 l50 -47
-150 -180 c-83 -99 -151 -183 -151 -187 0 -11 28 -10 75 3 22 6 54 27 73 47
l33 35 55 -54 c30 -29 54 -58 54 -64 0 -18 -72 -81 -120 -106 -32 -16 -68 -24
-126 -27 -73 -4 -88 -1 -142 23 -125 56 -194 169 -194 317 0 91 27 160 88 227
84 94 226 126 349 80z m-5307 -322 l2 -317 -85 0 -85 0 0 320 0 321 83 -3 82
-3 3 -318z m627 238 l0 -80 -180 -6 c-99 -3 -181 -6 -182 -7 -2 -1 -3 -13 -3
-27 0 -37 27 -45 150 -45 124 0 166 -14 213 -70 74 -87 54 -203 -46 -284 l-39
-31 -224 -3 -224 -3 0 80 0 81 186 0 c191 0 224 6 224 39 0 27 -19 31 -140 31
-125 0 -144 5 -200 56 -46 42 -76 122 -65 177 18 83 85 152 164 168 20 4 110
6 201 5 l165 -1 0 -80z m285 -125 c6 -226 9 -238 68 -266 65 -31 140 10 162
87 6 18 10 114 10 211 l0 178 80 0 80 0 0 -320 c0 -311 -1 -320 -19 -320 -11
0 -32 16 -47 35 l-26 35 -42 -29 c-60 -41 -109 -54 -180 -49 -105 9 -183 65
-228 163 -21 46 -23 67 -26 268 l-4 218 84 -3 83 -3 5 -205z m2925 170 c25
-36 30 -39 44 -26 43 39 112 58 215 59 l101 2 3 -82 3 -81 -100 -4 c-159 -5
-171 -25 -171 -288 l0 -180 -80 0 -80 0 0 320 c0 306 1 320 19 320 10 0 30
-18 46 -40z m935 -45 l0 -85 -164 0 c-90 0 -171 -3 -180 -6 -22 -9 -20 -51 3
-64 11 -5 67 -10 126 -10 157 0 221 -35 251 -136 19 -65 6 -125 -39 -179 -56
-68 -84 -75 -319 -75 l-208 0 0 80 0 80 186 0 c191 0 224 6 224 39 0 27 -18
31 -142 31 -119 0 -156 10 -204 58 -43 43 -58 82 -59 149 0 52 4 67 30 104 34
48 80 79 134 90 20 4 109 7 199 8 l162 1 0 -85z"/>
<path d="M2900 698 c-47 -32 -70 -80 -70 -149 0 -95 62 -163 148 -163 65 0
111 28 140 84 40 79 27 153 -37 214 -25 24 -42 30 -88 34 -48 3 -64 0 -93 -20z"/>
<path d="M4602 700 c-52 -32 -72 -74 -72 -152 0 -38 4 -68 9 -68 8 0 181 224
181 235 0 14 -89 3 -118 -15z"/>
<path d="M6374 701 c-45 -28 -72 -67 -79 -116 -7 -44 1 -105 13 -105 6 0 157
195 175 226 13 22 -71 18 -109 -5z"/>
</g>
</svg>
